HIERARCHY
ROOT Hips
{
  OFFSET 0 0 0
  CHANNELS 6 Xposition Yposition Zposition Zrotation Yrotation Xrotation
  JOINT LeftThigh
  {
    OFFSET 8.409438 0 -5.917753
    CHANNELS 3 Zrotation Yrotation Xrotation
    JOINT LeftLeg
    {
      OFFSET 0 0 -42.358652
      CHANNELS 3 Zrotation Yrotation Xrotation
      JOINT LeftFoot
      {
        OFFSET 0 0 -39.357303
        CHANNELS 3 Zrotation Yrotation Xrotation
      }
    }
  }
  JOINT RightThigh
  {
    OFFSET -8.409438 0 -5.917753
    CHANNELS 3 Zrotation Yrotation Xrotation
    JOINT RightLeg
    {
      OFFSET 0 0 -42.358652
      CHANNELS 3 Zrotation Yrotation Xrotation
      JOINT RightFoot
      {
        OFFSET 0 0 -39.357303
        CHANNELS 3 Zrotation Yrotation Xrotation
      }
    }
  }
  JOINT SpineLow
  {
    OFFSET 0 0 4.719101
    CHANNELS 3 Zrotation Yrotation Xrotation
    JOINT SpineMid
    {
      OFFSET 0 0 12.899191
      CHANNELS 3 Zrotation Yrotation Xrotation
      JOINT Chest
      {
        OFFSET 0 0 12.899191
        CHANNELS 3 Zrotation Yrotation Xrotation
        JOINT LeftShoulder
        {
          OFFSET 7.550562 1.41573 9.438202
          CHANNELS 3 Zrotation Yrotation Xrotation
          JOINT LeftArm
          {
            OFFSET 9.155056 0 4.247191
            CHANNELS 3 Zrotation Yrotation Xrotation
            JOINT LeftForearm
            {
              OFFSET 0 0 25.771955
              CHANNELS 3 Zrotation Yrotation Xrotation
              JOINT LeftHand
              {
                OFFSET 0 0 25.197169
                CHANNELS 3 Zrotation Yrotation Xrotation
              }
            }
          }
        }
        JOINT RightShoulder
        {
          OFFSET -7.550562 1.41573 9.438202
          CHANNELS 3 Zrotation Yrotation Xrotation
          JOINT RightArm
          {
            OFFSET -9.155056 0 4.247191
            CHANNELS 3 Zrotation Yrotation Xrotation
            JOINT RightForearm
            {
              OFFSET 0 0 -25.771955
              CHANNELS 3 Zrotation Yrotation Xrotation
              JOINT RightHand
              {
                OFFSET 0 0 -25.197169
                CHANNELS 3 Zrotation Yrotation Xrotation
              }
            }
          }
        }
        JOINT Neck
        {
          OFFSET 0 0 15.101124
          CHANNELS 3 Zrotation Yrotation Xrotation
          JOINT Head
          {
            OFFSET 0 0 11.325843
            CHANNELS 3 Zrotation Yrotation Xrotation
            End Site
            {
              OFFSET 0 0 14.157303
            }
          }
        }
      }
    }
  }
}
MOTION
Frames: 17
Frame Time: 0.0
0.0  89.887642  0.0  -0.428777  -11.142625  -93.827453  6.841778  -21.059347  -10.936657  0.100011  20.185295  37.06757  -1.527319  0.393192  -0.241159  -23.587741  13.858633  -20.17766  -8.030522  7.905296  33.67448  11.274308  3.971833  -1.572989  -0.105636  -0.007055  1.277544  -0.289026  -0.0137  3.492061  -0.289026  -0.0137  3.49206  -15.296044  22.204362  2.844858  177.026768  55.058293  -147.023235  5.63428  -3.917203  22.736582  94.210495  1.145128  -10.948522  -15.358837  0.295264  19.90373  50.99807  11.168171  46.790098  26.76254  -29.133485  -104.56159  65.628599  11.428782  -27.268283  -8.12594  -1.581746  -1.946441  -6.099178  -1.160686  -1.481087  
0.0  89.887642  0.0  -0.309744  -11.573868  -93.635942  7.423929  -20.86182  -10.815245  -0.370404  20.171309  36.695504  -1.52407  0.403408  -0.310699  -23.985396  13.703335  -20.576957  -7.93169  8.02327  33.504009  10.887505  3.840107  -1.57549  -0.148866  0.044689  1.309583  -0.404354  0.130169  3.579327  -0.404354  0.130169  3.579327  -15.221042  22.034436  2.442115  176.129304  55.368116  -148.036469  5.709692  -4.074121  23.496994  93.73424  1.47489  -10.281403  -14.804433  0.202214  19.559875  50.98269  11.26541  46.741107  26.799122  -28.420234  -103.718905  65.310281  13.008955  -27.200974  -8.218874  -1.822042  -2.303164  -6.170606  -1.335868  -1.752116  
0.0  89.887642  0.0  -0.129216  -12.057067  -93.547556  7.7937  -20.618125  -10.648429  -0.876558  20.149512  36.257775  -1.414229  0.452284  -0.352772  -24.487958  13.490085  -20.929207  -7.280833  8.127141  33.311983  10.88054  3.817425  -1.484058  -0.118431  0.133648  1.379213  -0.315983  0.371928  3.769314  -0.315983  0.371928  3.769314  -15.666798  21.615532  1.898373  175.17221  55.614306  -148.911764  5.407835  -4.392639  23.611007  93.384393  1.623166  -9.827749  -14.775741  -0.234947  19.062473  50.798405  11.306234  46.663612  26.358648  -28.207578  -103.506778  65.132543  13.271851  -27.132606  -8.461241  -2.087667  -2.759417  -6.354808  -1.527932  -2.098727  
0.0  89.887642  0.0  0.050989  -12.458916  -93.485873  7.847638  -20.428699  -10.457311  -0.979354  20.125023  35.934647  -1.427552  0.490657  -0.416609  -25.025008  13.227123  -21.238231  -6.660835  8.186326  33.074764  11.022068  3.907095  -1.384367  -0.056014  0.222914  1.427788  -0.139893  0.612375  3.902302  -0.139893  0.612375  3.902302  -16.051807  21.12662  1.57979  174.380517  55.704572  -149.593387  3.974436  -4.732137  22.174276  94.303127  0.123211  -9.291141  -14.85896  -0.556551  18.806452  50.630634  11.249319  46.572643  26.129314  -28.28214  -103.572361  64.911206  13.181649  -26.888412  -8.744902  -2.267498  -3.130524  -6.569641  -1.656285  -2.380627  
0.0  89.887642  0.0  0.134604  -12.853982  -93.519028  7.640519  -20.454723  -10.110007  -0.711265  20.084974  35.654267  -1.355956  0.529602  -0.401251  -25.106509  13.041508  -21.270689  -5.849306  8.063765  32.887775  10.86766  3.885748  -1.289224  0.004478  0.281477  1.459806  0.029223  0.768797  3.990451  0.029223  0.768797  3.990451  -16.253664  20.76715  1.560729  174.106049  55.663839  -149.803405  3.833831  -5.018803  22.155501  94.429071  0.220647  -9.30505  -15.286251  -0.815995  18.651857  50.64952  11.113624  46.506912  25.953524  -28.297428  -103.360897  64.742172  12.804433  -26.408011  -8.921131  -2.299255  -3.39146  -6.702956  -1.675421  -2.577486  
0.0  89.887642  0.0  0.181359  -13.149583  -93.608292  7.218362  -20.542001  -9.707993  -0.2524  20.005508  35.439129  -1.390344  0.537766  -0.400519  -24.767984  12.998369  -21.069532  -5.212312  7.945865  32.664537  10.538655  3.800529  -1.196108  0.022587  0.309968  1.474846  0.080615  0.845528  4.031835  0.080615  0.845528  4.031835  -16.121371  20.789895  1.696211  174.059959  55.737052  -149.909068  3.710856  -5.143731  22.106782  94.767576  0.186733  -9.528782  -15.443727  -0.822583  18.667255  50.632299  11.010606  46.401387  25.890067  -28.26847  -103.157326  64.637923  12.315859  -25.997549  -8.900191  -2.21921  -3.546219  -6.687454  -1.613236  -2.692344  
0.0  89.887642  0.0  0.111312  -13.429802  -93.737566  6.690571  -20.613766  -9.294929  0.407796  19.770853  35.403912  -1.438199  0.557743  -0.376301  -23.958296  13.047503  -20.664286  -5.324106  7.886509  32.428785  10.28375  3.771685  -1.088015  -0.00445  0.308393  1.477  0.006672  0.842872  4.037376  0.006672  0.842872  4.037376  -15.975946  20.873432  1.82715  174.3074  55.733045  -150.050013  3.677366  -5.249478  22.187796  95.056665  0.231546  -9.649134  -15.369371  -0.670636  18.805555  50.778146  10.912981  46.34518  25.810225  -28.217613  -103.025945  64.714657  11.892147  -25.796592  -8.665569  -2.056  -3.625388  -6.510947  -1.491013  -2.748569  
0.0  89.887642  0.0  -0.041656  -13.642818  -93.858554  6.244414  -20.760389  -8.934164  0.745375  19.59159  35.278967  -1.419883  0.601925  -0.308804  -22.825838  13.210517  -20.157893  -5.691356  7.811811  32.263185  10.094548  3.768294  -1.000928  -0.015568  0.286351  1.497068  -0.024815  0.783332  4.092076  -0.024815  0.783332  4.092076  -15.689472  21.047112  1.948988  173.937608  55.790184  -150.309051  3.721307  -5.259976  22.236075  95.348463  0.425258  -9.722342  -15.537825  -0.475459  18.824352  50.754038  10.881673  46.198067  25.847615  -27.966721  -102.824187  64.929894  11.625987  -25.785038  -8.490308  -1.897691  -3.733056  -6.379023  -1.371782  -2.826556  
0.0  89.887642  0.0  -0.191616  -13.848707  -93.955374  6.057129  -20.956462  -8.730568  0.976036  19.542774  35.31783  -1.446332  0.612089  -0.251055  -21.851307  13.232021  -19.713824  -6.19234  7.86917  32.066809  9.889171  3.72329  -0.924519  -0.030623  0.272278  1.517327  -0.066593  0.745829  4.147279  -0.066593  0.745829  4.147279  -15.613903  21.013584  1.974431  173.775011  55.734255  -150.512295  3.884795  -5.178426  22.138401  95.488194  0.555661  -9.684169  -15.478049  -0.304826  18.909044  50.821953  10.863967  46.108105  25.704127  -27.689404  -102.822323  65.224963  11.610646  -25.848654  -8.275406  -1.803012  -3.81349  -6.217579  -1.300964  -2.88493  
0.0  89.887642  0.0  -0.340204  -14.032443  -93.979645  6.197502  -21.139489  -8.636899  0.620857  19.604733  35.105846  -1.370397  0.665967  -0.131597  -20.909093  13.292801  -19.395479  -6.618167  7.865576  31.959373  9.629819  3.632601  -0.859939  -0.014275  0.259087  1.540029  -0.022508  0.708767  4.20951  -0.022508  0.708767  4.20951  -15.505328  21.021775  1.989513  173.396316  55.715444  -150.699867  4.128093  -5.073484  22.210159  95.564606  0.805788  -9.530566  -15.60375  -0.21613  18.889763  50.648249  10.906084  45.935293  25.541753  -27.373951  -102.91762  65.5548  11.444238  -25.936815  -8.174679  -1.73858  -3.903397  -6.141941  -1.252049  -2.951212  
0.0  89.887642  0.0  -0.408801  -14.11745  -93.945462  6.521452  -21.313866  -8.70557  0.280404  19.78317  35.082919  -1.368559  0.656202  -0.039907  -20.555236  13.38055  -19.338173  -6.766601  7.734238  31.893348  9.503113  3.594169  -0.774464  0.006439  0.26893  1.552136  0.034849  0.734333  4.242842  0.034849  0.734333  4.242842  -15.604827  20.87837  2.009185  173.055736  55.686943  -150.81725  4.207351  -5.00731  22.142239  95.592063  0.88419  -9.433693  -15.782838  -0.224399  18.858228  50.649258  10.979304  45.888565  25.361807  -27.049129  -102.933702  65.639621  11.473924  -26.101226  -8.140945  -1.750518  -3.952395  -6.116858  -1.260567  -2.988019  
0.0  89.887642  0.0  -0.504934  -13.996017  -93.844536  6.657899  -21.437969  -8.955408  -0.210811  19.951503  35.050708  -1.263241  0.704633  0.106845  -20.483352  13.416205  -19.31436  -6.767509  7.585958  31.820629  9.312299  3.510973  -0.701522  -6.81E-4  0.262966  1.537661  0.014855  0.718499  4.203187  0.014855  0.718499  4.203187  -15.614342  20.88474  2.119343  172.841119  55.68616  -150.823466  4.162748  -4.979082  22.140606  95.616705  0.906622  -9.478966  -15.911683  -0.159267  18.907183  50.532809  11.046196  45.768562  25.27469  -26.798308  -102.895867  65.64193  11.459997  -26.221597  -8.08744  -1.69511  -3.904629  -6.076262  -1.219973  -2.951308  
0.0  89.887642  0.0  -0.563413  -14.035771  -93.825008  6.943475  -21.519117  -9.116091  -0.572248  20.071136  35.11968  -1.24325  0.707049  0.21121  -20.534127  13.359184  -19.284379  -6.589283  7.49056  31.715801  9.244094  3.4774  -0.617074  0.005494  0.263383  1.52512  0.031616  0.719254  4.168974  0.031616  0.719254  4.168974  -15.611174  20.927079  2.176403  172.878801  55.673701  -150.689955  4.036077  -5.031004  22.159379  95.611155  0.948227  -9.580396  -15.927085  -0.134994  18.968599  50.524867  11.104577  45.766786  25.240574  -26.707028  -102.921704  65.592475  11.401441  -26.331004  -8.033588  -1.686033  -3.828986  -6.0356  -1.214497  -2.894294  
0.0  89.887642  0.0  -0.628279  -14.039715  -93.783431  7.021706  -21.571568  -9.300837  -0.680516  20.157788  35.320588  -1.202828  0.682722  0.288506  -20.708023  13.264872  -19.304747  -6.072508  7.349013  31.689708  9.012346  3.364163  -0.563439  0.00212  0.262158  1.515245  0.022214  0.716126  4.141943  0.022214  0.716126  4.141943  -15.433407  21.026179  2.17538  172.972849  55.614871  -150.424886  3.879507  -5.134065  22.180469  95.684528  0.989836  -9.632534  -15.871518  -0.151454  18.977953  50.471713  11.157942  45.737743  25.309524  -26.693476  -102.882095  65.546596  11.290282  -26.320329  -7.837511  -1.645645  -3.722139  -5.88801  -1.186783  -2.813071  
0.0  89.887642  0.0  -0.723097  -14.118862  -93.786542  7.002868  -21.649237  -9.346901  -0.799956  20.205485  35.37953  -1.130476  0.67314  0.365625  -20.918127  13.099993  -19.304466  -5.738565  7.277211  31.639562  8.95671  3.338032  -0.498881  0.024828  0.265647  1.522061  0.084552  0.724227  4.160828  0.084552  0.724227  4.160828  -15.507323  20.989106  2.080775  173.402219  55.552859  -150.010023  3.7958  -5.135541  22.171661  95.767153  0.98008  -9.622231  -15.918756  -0.276216  18.920356  50.540922  11.203216  45.793408  25.339201  -26.756385  -102.846433  65.467929  11.15598  -26.261599  -7.82916  -1.72712  -3.688287  -5.882103  -1.248388  -2.788681  
0.0  89.887642  0.0  -0.74246  -14.095402  -93.688121  6.819592  -21.607113  -9.41859  -0.783837  20.209969  35.416107  -1.070189  0.65041  0.421333  -21.116322  12.97774  -19.378763  -5.357626  7.20553  31.608407  8.768506  3.277071  -0.475164  0.042606  0.279668  1.515604  0.133934  0.761429  4.143413  0.133934  0.761429  4.143413  -15.525549  20.96498  1.997305  173.513691  55.580156  -149.67019  3.886532  -5.02256  22.236253  95.746815  1.169069  -9.620598  -15.976622  -0.396073  18.859621  50.702119  11.232405  45.893374  25.414734  -26.850921  -102.847573  65.388524  11.050263  -26.159497  -7.725796  -1.789457  -3.615832  -5.804704  -1.296683  -2.7348  
0.0  89.887642  0.0  -0.83211  -14.110465  -93.56578  6.526211  -21.676436  -9.473932  -0.728442  20.241606  35.377237  -0.96115  0.641025  0.478163  -21.470094  12.779583  -19.509601  -5.032611  7.146534  31.552314  8.792928  3.251326  -0.426111  0.057668  0.282119  1.509849  0.175175  0.767199  4.127861  0.175175  0.767199  4.127861  -15.608845  20.901896  1.875684  173.659026  55.53571  -149.430255  4.024495  -4.90365  22.159341  95.837818  1.181475  -9.539503  -16.027914  -0.541452  18.772106  50.738499  11.249737  45.923513  25.432611  -26.944602  -102.785353  65.257655  10.933798  -26.090375  -7.724729  -1.879668  -3.624589  -5.804417  -1.364253  -2.742484  
